<?xml version="1.0" encoding="utf-8"?>
<!-- Generator: Adobe Illustrator 16.0.0, SVG Export Plug-In . SVG Version: 6.00 Build 0)  -->
<!DOCTYPE svg PUBLIC "-//W3C//DTD SVG 1.1//EN" "http://www.w3.org/Graphics/SVG/1.1/DTD/svg11.dtd">
<svg version="1.1" id="Layer_1" xmlns="http://www.w3.org/2000/svg" xmlns:xlink="http://www.w3.org/1999/xlink" x="0px" y="0px"
	 width="488.755px" height="311.461px" viewBox="0 0 488.755 311.461" enable-background="new 0 0 488.755 311.461"
	 xml:space="preserve">
<g>
	<g>
		<g>
			<g>
				<path fill="#365EBF" d="M136.125,58.186h-5.354c-1.087,0-1.921-0.584-2.005-1.672l-0.084-2.094
					c-3.85,3.1-8.449,4.77-13.302,4.77c-9.368,0-13.213-5.936-13.213-14.971V19.477c0-1.421,0.836-1.925,2.171-1.925h5.857
					c1.338,0,2.091,0.415,2.091,1.925V42.46c0,4.603,1.173,7.779,6.191,7.779c3.177,0,7.192-1.755,9.702-4.013v-26.75
					c0-1.421,0.753-1.925,2.09-1.925h5.939c1.34,0,2.093,0.415,2.093,1.925v36.368C138.301,57.602,137.797,58.186,136.125,58.186z"
					/>
			</g>
		</g>
		<path fill="#365EBF" d="M0,19.222c0-1.002,0.502-1.671,1.505-1.671H8.58c1.005,0,1.59,0.585,1.59,1.671v36.873
			c0,1.507-0.671,2.091-2.093,2.091H2.175C0.674,58.186,0,57.602,0,56.095V19.222z"/>
		<path fill="#365EBF" d="M148.77,19.222c0-1.002,0.502-1.671,1.505-1.671h7.074c1.004,0,1.591,0.585,1.591,1.671v36.873
			c0,1.507-0.672,2.091-2.094,2.091h-5.901c-1.502,0-2.175-0.584-2.175-2.091V19.222z"/>
		<path fill="#365EBF" d="M55.008,58.186h-6.021c-1.506,0-2.008-0.753-2.008-2.176V33.259c0-4.599-1.251-7.862-6.357-7.862
			c-3.263,0-7.276,1.757-9.869,4.016v26.682c0,1.425-0.587,2.091-2.007,2.091h-6.108c-1.256,0-2.007-0.666-2.007-2.006V19.651
			c0-1.339,0.587-2.093,2.091-2.093h5.437c1.17,0,1.926,0.336,2.007,1.589l0.083,2.233c3.851-3.093,8.701-4.849,13.554-4.849
			c9.368,0,13.214,5.854,13.214,14.972V56.01C57.017,57.433,56.515,58.186,55.008,58.186z"/>
		<g>
			<g>
				<circle fill="#365EBF" cx="78.684" cy="6.136" r="6.135"/>
			</g>
			<path fill="#365EBF" d="M93.548,17.55c1.003,0,1.59,0.333,1.59,1.421v5.891c0,1.003-0.67,1.589-1.674,1.589H83.77l-0.001,29.643
				c0,1.507-0.667,2.091-2.173,2.091h-5.822c-1.507,0-2.174-0.584-2.174-2.091l-0.001-29.643h-9.695
				c-1.004,0-1.674-0.586-1.674-1.589v-5.891c0-1.088,0.586-1.421,1.589-1.421H93.548z"/>
		</g>
		<g>
			<g>
				<circle fill="#365EBF" cx="182.483" cy="6.136" r="6.136"/>
			</g>
			<path fill="#365EBF" d="M197.347,17.55c1.002,0,1.588,0.333,1.588,1.421v5.891c0,1.003-0.669,1.589-1.673,1.589h-9.694
				l-0.001,29.643c0,1.507-0.668,2.091-2.174,2.091h-5.821c-1.506,0-2.174-0.584-2.174-2.091l-0.001-29.643h-9.694
				c-1.004,0-1.674-0.586-1.674-1.589v-5.891c0-1.088,0.585-1.421,1.589-1.421H197.347z"/>
		</g>
	</g>
	<g>
		<path fill="#365EBF" d="M200.108,52.521c1.625,0,2.988,1.283,2.988,2.965c0,1.711-1.363,2.996-2.988,2.996
			c-1.635,0-3.004-1.285-3.004-2.996C197.104,53.805,198.473,52.521,200.108,52.521z M200.108,58.044
			c1.378,0,2.446-1.101,2.446-2.558c0-1.428-1.068-2.527-2.446-2.527c-1.396,0-2.463,1.1-2.463,2.527
			C197.645,56.943,198.712,58.044,200.108,58.044z M198.943,53.756h1.348c0.827,0,1.22,0.327,1.22,0.996
			c0,0.631-0.398,0.893-0.916,0.949l0.995,1.537h-0.581l-0.949-1.498h-0.573v1.498h-0.543V53.756z M199.486,55.303h0.565
			c0.479,0,0.916-0.025,0.916-0.574c0-0.463-0.397-0.535-0.765-0.535h-0.717V55.303z"/>
	</g>
</g>
<g>
	<g>
		<g>
			<g>
				<path fill="#365EBF" d="M136.125,138.186h-5.354c-1.087,0-1.921-0.584-2.005-1.672l-0.084-2.094
					c-3.85,3.1-8.449,4.77-13.302,4.77c-9.368,0-13.213-5.936-13.213-14.971V99.477c0-1.421,0.836-1.924,2.171-1.924h5.857
					c1.338,0,2.091,0.414,2.091,1.924v22.983c0,4.603,1.173,7.779,6.191,7.779c3.177,0,7.192-1.755,9.702-4.013v-26.75
					c0-1.421,0.753-1.924,2.09-1.924h5.939c1.34,0,2.093,0.414,2.093,1.924v36.368C138.301,137.602,137.797,138.186,136.125,138.186
					z"/>
			</g>
		</g>
		<path fill="#365EBF" d="M0,99.222c0-1.002,0.502-1.671,1.505-1.671H8.58c1.005,0,1.59,0.585,1.59,1.671v36.873
			c0,1.507-0.671,2.091-2.093,2.091H2.175c-1.501,0-2.175-0.584-2.175-2.091V99.222z"/>
		<path fill="#365EBF" d="M148.77,99.222c0-1.002,0.502-1.671,1.505-1.671h7.074c1.004,0,1.591,0.585,1.591,1.671v36.873
			c0,1.507-0.672,2.091-2.094,2.091h-5.901c-1.502,0-2.175-0.584-2.175-2.091V99.222z"/>
		<path fill="#365EBF" d="M55.008,138.186h-6.021c-1.506,0-2.008-0.753-2.008-2.176v-22.751c0-4.599-1.251-7.862-6.357-7.862
			c-3.263,0-7.276,1.758-9.869,4.017v26.682c0,1.425-0.587,2.091-2.007,2.091h-6.108c-1.256,0-2.007-0.666-2.007-2.006V99.651
			c0-1.339,0.587-2.093,2.091-2.093h5.437c1.17,0,1.926,0.336,2.007,1.59l0.083,2.232c3.851-3.093,8.701-4.849,13.554-4.849
			c9.368,0,13.214,5.854,13.214,14.972v24.506C57.017,137.433,56.515,138.186,55.008,138.186z"/>
		<g>
			<g>
				<circle fill="#365EBF" cx="78.684" cy="86.137" r="6.135"/>
			</g>
			<path fill="#365EBF" d="M93.548,97.551c1.003,0,1.59,0.332,1.59,1.421v5.891c0,1.003-0.67,1.589-1.674,1.589H83.77l-0.001,29.644
				c0,1.507-0.667,2.091-2.173,2.091h-5.822c-1.507,0-2.174-0.584-2.174-2.091l-0.001-29.644h-9.695
				c-1.004,0-1.674-0.586-1.674-1.589v-5.891c0-1.089,0.586-1.421,1.589-1.421H93.548z"/>
		</g>
		<g>
			<g>
				<circle fill="#365EBF" cx="182.483" cy="86.137" r="6.136"/>
			</g>
			<path fill="#365EBF" d="M197.347,97.551c1.002,0,1.588,0.332,1.588,1.421v5.891c0,1.003-0.669,1.589-1.673,1.589h-9.694
				l-0.001,29.644c0,1.507-0.668,2.091-2.174,2.091h-5.821c-1.506,0-2.174-0.584-2.174-2.091l-0.001-29.644h-9.694
				c-1.004,0-1.674-0.586-1.674-1.589v-5.891c0-1.089,0.585-1.421,1.589-1.421H197.347z"/>
		</g>
	</g>
	<g>
		<path fill="#365EBF" d="M200.108,132.521c1.625,0,2.988,1.283,2.988,2.965c0,1.711-1.363,2.996-2.988,2.996
			c-1.635,0-3.004-1.285-3.004-2.996C197.104,133.805,198.473,132.521,200.108,132.521z M200.108,138.044
			c1.378,0,2.446-1.101,2.446-2.558c0-1.428-1.068-2.527-2.446-2.527c-1.396,0-2.463,1.1-2.463,2.527
			C197.645,136.943,198.712,138.044,200.108,138.044z M198.943,133.756h1.348c0.827,0,1.22,0.327,1.22,0.996
			c0,0.631-0.398,0.893-0.916,0.949l0.995,1.537h-0.581l-0.949-1.498h-0.573v1.498h-0.543V133.756z M199.486,135.303h0.565
			c0.479,0,0.916-0.025,0.916-0.574c0-0.463-0.397-0.535-0.765-0.535h-0.717V135.303z"/>
	</g>
</g>
<g>
	<g>
		<g>
			<g>
				<path fill="#365EBF" d="M136.125,218.186h-5.354c-1.087,0-1.921-0.584-2.005-1.672l-0.084-2.094
					c-3.85,3.1-8.449,4.77-13.302,4.77c-9.368,0-13.213-5.936-13.213-14.971v-24.742c0-1.421,0.836-1.924,2.171-1.924h5.857
					c1.338,0,2.091,0.414,2.091,1.924v22.983c0,4.603,1.173,7.779,6.191,7.779c3.177,0,7.192-1.755,9.702-4.013v-26.75
					c0-1.421,0.753-1.924,2.09-1.924h5.939c1.34,0,2.093,0.414,2.093,1.924v36.368C138.301,217.602,137.797,218.186,136.125,218.186
					z"/>
			</g>
		</g>
		<path fill="#365EBF" d="M0,179.222c0-1.002,0.502-1.671,1.505-1.671H8.58c1.005,0,1.59,0.585,1.59,1.671v36.873
			c0,1.507-0.671,2.091-2.093,2.091H2.175c-1.501,0-2.175-0.584-2.175-2.091V179.222z"/>
		<path fill="#365EBF" d="M148.77,179.222c0-1.002,0.502-1.671,1.505-1.671h7.074c1.004,0,1.591,0.585,1.591,1.671v36.873
			c0,1.507-0.672,2.091-2.094,2.091h-5.901c-1.502,0-2.175-0.584-2.175-2.091V179.222z"/>
		<path fill="#365EBF" d="M55.008,218.186h-6.021c-1.506,0-2.008-0.753-2.008-2.176v-22.751c0-4.599-1.251-7.862-6.357-7.862
			c-3.263,0-7.276,1.758-9.869,4.017v26.682c0,1.425-0.587,2.091-2.007,2.091h-6.108c-1.256,0-2.007-0.666-2.007-2.006v-36.528
			c0-1.339,0.587-2.093,2.091-2.093h5.437c1.17,0,1.926,0.336,2.007,1.59l0.083,2.232c3.851-3.093,8.701-4.849,13.554-4.849
			c9.368,0,13.214,5.854,13.214,14.972v24.506C57.017,217.433,56.515,218.186,55.008,218.186z"/>
		<g>
			<g>
				<circle fill="#365EBF" cx="78.684" cy="166.137" r="6.135"/>
			</g>
			<path fill="#365EBF" d="M93.548,177.551c1.003,0,1.59,0.332,1.59,1.421v5.891c0,1.003-0.67,1.589-1.674,1.589H83.77
				l-0.001,29.644c0,1.507-0.667,2.091-2.173,2.091h-5.822c-1.507,0-2.174-0.584-2.174-2.091l-0.001-29.644h-9.695
				c-1.004,0-1.674-0.586-1.674-1.589v-5.891c0-1.089,0.586-1.421,1.589-1.421H93.548z"/>
		</g>
		<g>
			<g>
				<circle fill="#365EBF" cx="182.483" cy="166.137" r="6.136"/>
			</g>
			<path fill="#365EBF" d="M197.347,177.551c1.002,0,1.588,0.332,1.588,1.421v5.891c0,1.003-0.669,1.589-1.673,1.589h-9.694
				l-0.001,29.644c0,1.507-0.668,2.091-2.174,2.091h-5.821c-1.506,0-2.174-0.584-2.174-2.091l-0.001-29.644h-9.694
				c-1.004,0-1.674-0.586-1.674-1.589v-5.891c0-1.089,0.585-1.421,1.589-1.421H197.347z"/>
		</g>
	</g>
	<g>
		<path fill="#365EBF" d="M200.108,212.521c1.625,0,2.988,1.283,2.988,2.965c0,1.711-1.363,2.996-2.988,2.996
			c-1.635,0-3.004-1.285-3.004-2.996C197.104,213.805,198.473,212.521,200.108,212.521z M200.108,218.044
			c1.378,0,2.446-1.101,2.446-2.558c0-1.428-1.068-2.527-2.446-2.527c-1.396,0-2.463,1.1-2.463,2.527
			C197.645,216.943,198.712,218.044,200.108,218.044z M198.943,213.756h1.348c0.827,0,1.22,0.327,1.22,0.996
			c0,0.631-0.398,0.893-0.916,0.949l0.995,1.537h-0.581l-0.949-1.498h-0.573v1.498h-0.543V213.756z M199.486,215.303h0.565
			c0.479,0,0.916-0.025,0.916-0.574c0-0.463-0.397-0.535-0.765-0.535h-0.717V215.303z"/>
	</g>
</g>
<g>
	<g>
		<g>
			<g>
				<path fill="#365EBF" d="M136.125,298.186h-5.354c-1.087,0-1.921-0.584-2.005-1.672l-0.084-2.094
					c-3.85,3.1-8.449,4.77-13.302,4.77c-9.368,0-13.213-5.936-13.213-14.971v-24.742c0-1.421,0.836-1.924,2.171-1.924h5.857
					c1.338,0,2.091,0.414,2.091,1.924v22.983c0,4.603,1.173,7.779,6.191,7.779c3.177,0,7.192-1.755,9.702-4.013v-26.75
					c0-1.421,0.753-1.924,2.09-1.924h5.939c1.34,0,2.093,0.414,2.093,1.924v36.368C138.301,297.602,137.797,298.186,136.125,298.186
					z"/>
			</g>
		</g>
		<path fill="#365EBF" d="M0,259.222c0-1.002,0.502-1.671,1.505-1.671H8.58c1.005,0,1.59,0.585,1.59,1.671v36.873
			c0,1.507-0.671,2.091-2.093,2.091H2.175c-1.501,0-2.175-0.584-2.175-2.091V259.222z"/>
		<path fill="#365EBF" d="M148.77,259.222c0-1.002,0.502-1.671,1.505-1.671h7.074c1.004,0,1.591,0.585,1.591,1.671v36.873
			c0,1.507-0.672,2.091-2.094,2.091h-5.901c-1.502,0-2.175-0.584-2.175-2.091V259.222z"/>
		<path fill="#365EBF" d="M55.008,298.186h-6.021c-1.506,0-2.008-0.753-2.008-2.176v-22.751c0-4.599-1.251-7.862-6.357-7.862
			c-3.263,0-7.276,1.758-9.869,4.017v26.682c0,1.425-0.587,2.091-2.007,2.091h-6.108c-1.256,0-2.007-0.666-2.007-2.006v-36.528
			c0-1.339,0.587-2.093,2.091-2.093h5.437c1.17,0,1.926,0.336,2.007,1.59l0.083,2.232c3.851-3.093,8.701-4.849,13.554-4.849
			c9.368,0,13.214,5.854,13.214,14.972v24.506C57.017,297.433,56.515,298.186,55.008,298.186z"/>
		<g>
			<g>
				<circle fill="#365EBF" cx="78.684" cy="246.137" r="6.135"/>
			</g>
			<path fill="#365EBF" d="M93.548,257.551c1.003,0,1.59,0.332,1.59,1.421v5.891c0,1.003-0.67,1.589-1.674,1.589H83.77
				l-0.001,29.644c0,1.507-0.667,2.091-2.173,2.091h-5.822c-1.507,0-2.174-0.584-2.174-2.091l-0.001-29.644h-9.695
				c-1.004,0-1.674-0.586-1.674-1.589v-5.891c0-1.089,0.586-1.421,1.589-1.421H93.548z"/>
		</g>
		<g>
			<g>
				<circle fill="#365EBF" cx="182.483" cy="246.137" r="6.136"/>
			</g>
			<path fill="#365EBF" d="M197.347,257.551c1.002,0,1.588,0.332,1.588,1.421v5.891c0,1.003-0.669,1.589-1.673,1.589h-9.694
				l-0.001,29.644c0,1.507-0.668,2.091-2.174,2.091h-5.821c-1.506,0-2.174-0.584-2.174-2.091l-0.001-29.644h-9.694
				c-1.004,0-1.674-0.586-1.674-1.589v-5.891c0-1.089,0.585-1.421,1.589-1.421H197.347z"/>
		</g>
	</g>
	<g>
		<path fill="#365EBF" d="M200.108,292.521c1.625,0,2.988,1.283,2.988,2.965c0,1.711-1.363,2.996-2.988,2.996
			c-1.635,0-3.004-1.285-3.004-2.996C197.104,293.805,198.473,292.521,200.108,292.521z M200.108,298.044
			c1.378,0,2.446-1.101,2.446-2.558c0-1.428-1.068-2.527-2.446-2.527c-1.396,0-2.463,1.1-2.463,2.527
			C197.645,296.943,198.712,298.044,200.108,298.044z M198.943,293.756h1.348c0.827,0,1.22,0.327,1.22,0.996
			c0,0.631-0.398,0.893-0.916,0.949l0.995,1.537h-0.581l-0.949-1.498h-0.573v1.498h-0.543V293.756z M199.486,295.303h0.565
			c0.479,0,0.916-0.025,0.916-0.574c0-0.463-0.397-0.535-0.765-0.535h-0.717V295.303z"/>
	</g>
</g>
<g>
	<path fill="#828487" d="M254.593,62.834c0,0.414-0.177,0.886-0.354,1.83c-0.177,0.767-0.531,0.707-1.121,0.59
		c-3.068-0.59-4.839-1.416-7.199-3.187c-2.359-1.711-4.13-3.363-7.257-3.363c-0.886,0-1.771,0.118-2.655,0.118
		c-11.979,0-16.227-10.268-16.227-20.594c0-10.208,5.074-21.124,16.816-21.124c11.919,0,16.227,10.503,16.227,20.711
		c0,7.375-2.479,15.459-9.441,19.176c2.242,0.768,3.954,2.184,5.96,3.364c1.416,0.825,2.714,1.239,4.366,1.651
		C254.18,62.127,254.593,62.244,254.593,62.834z M236.479,20.527c-9.028,0-12.273,10.208-12.273,17.525
		c0,7.553,2.537,17.465,11.979,17.465c9.087,0,12.214-10.148,12.214-17.524C248.398,30.381,245.979,20.527,236.479,20.527z"/>
	<path fill="#828487" d="M281.791,57.229c0,0.709-0.295,1.062-0.944,1.062h-1.829c-0.648,0-0.943-0.354-0.943-1.062l-0.06-2.064
		c-2.714,2.419-5.9,3.658-9.264,3.658c-2.95,0-5.134-0.885-6.668-2.36c-1.888-1.888-2.655-4.721-2.655-8.379V30.912
		c0-0.708,0.295-1.062,0.944-1.062h1.889c0.648,0,0.943,0.354,0.943,1.062v16.64c0,2.95,0.473,5.075,1.712,6.491
		c0.885,1.003,2.537,1.711,4.779,1.711c2.832,0,6.372-1.947,8.319-3.895V30.912c0-0.708,0.295-1.062,0.944-1.062h1.888
		c0.649,0,0.944,0.354,0.944,1.062V57.229z"/>
	<path fill="#828487" d="M292.172,25.543c-1.357,0-2.419-0.944-2.419-2.301c0-1.357,1.062-2.301,2.419-2.301
		s2.479,0.944,2.479,2.301C294.651,24.599,293.53,25.543,292.172,25.543z M294.06,57.229c0,0.709-0.295,1.062-0.943,1.062h-1.889
		c-0.648,0-0.944-0.354-0.944-1.062V30.912c0-0.708,0.296-1.062,0.944-1.062h1.889c0.648,0,0.943,0.354,0.943,1.062V57.229z"/>
	<path fill="#828487" d="M322.794,56.049c0.177,0.531,0.06,0.826-0.531,1.121c-2.419,1.121-5.133,1.652-7.611,1.652
		c-9.323,0-13.513-6.255-13.513-14.869c0-8.379,5.075-14.693,13.749-14.693c2.478,0,5.546,0.767,7.375,1.77
		c0.354,0.177,0.531,0.413,0.531,0.649c0,0.117-0.059,0.295-0.118,0.472l-0.354,1.062c-0.118,0.296-0.236,0.65-0.59,0.65
		c-0.118,0-0.236-0.06-0.413-0.119c-1.889-0.885-4.013-1.593-6.491-1.593c-5.9,0-9.795,4.544-9.795,11.683
		c0,6.196,2.537,12.156,9.618,12.156c2.537,0,5.251-0.709,6.845-1.416c0.472-0.236,0.826-0.178,1.003,0.412L322.794,56.049z"/>
	<path fill="#828487" d="M342.558,57.465l-9.5-13.748l-1.711,1.77v11.742c0,0.709-0.295,1.062-0.943,1.062h-1.889
		c-0.649,0-0.944-0.354-0.944-1.062V17.813c0-0.708,0.118-0.944,0.768-1.062c2.124-0.295,2.242-0.295,2.301-0.295
		c0.473,0,0.708,0.354,0.708,0.944v23.838h0.118l9.972-10.798c0.354-0.413,0.649-0.59,1.062-0.59h2.95
		c0.59,0,0.413,0.413,0.177,0.708l-9.854,10.622l11.152,15.872c0.472,0.708,0.472,1.239-0.531,1.239h-2.184
		C343.444,58.291,342.971,58.055,342.558,57.465z"/>
	<path fill="#828487" d="M362.853,58.291h-9.146c-0.826,0-1.062-0.118-1.062-1.003V18.875c0-0.885,0.296-1.121,1.357-1.121h7.435
		c7.494,0,13.218,2.538,13.218,9.854c0,4.367-2.597,8.143-7.376,9.087v0.059c5.842,0.118,10.444,3.895,10.444,10.031
		C377.723,55.812,371.055,58.291,362.853,58.291z M360.847,20.94h-4.071v14.515h4.544c4.071,0,9.204-1.002,9.204-7.788
		C370.524,21.943,365.921,20.94,360.847,20.94z M362.381,38.643h-5.605v16.462h5.605c6.432,0,11.093-1.771,11.093-8.261
		C373.474,40.471,368.4,38.643,362.381,38.643z"/>
	<path fill="#828487" d="M395.657,58.822c-8.851,0-12.745-6.49-12.745-14.811c0-8.201,4.603-14.751,13.1-14.751
		c8.851,0,12.863,6.254,12.863,14.751C408.875,52.272,404.213,58.822,395.657,58.822z M396.011,32.151
		c-7.021,0-9.205,6.255-9.205,11.742c0,5.782,2.006,12.097,8.91,12.097c6.845,0,9.264-5.96,9.264-11.86
		C404.98,38.288,402.738,32.151,396.011,32.151z"/>
	<path fill="#828487" d="M426.455,58.822c-8.851,0-12.745-6.49-12.745-14.811c0-8.201,4.603-14.751,13.1-14.751
		c8.851,0,12.863,6.254,12.863,14.751C439.672,52.272,435.011,58.822,426.455,58.822z M426.809,32.151
		c-7.021,0-9.205,6.255-9.205,11.742c0,5.782,2.006,12.097,8.91,12.097c6.845,0,9.264-5.96,9.264-11.86
		C435.778,38.288,433.536,32.151,426.809,32.151z"/>
	<path fill="#828487" d="M461.028,57.465l-9.499-13.748l-1.712,1.77v11.742c0,0.709-0.295,1.062-0.943,1.062h-1.889
		c-0.649,0-0.944-0.354-0.944-1.062V17.813c0-0.708,0.118-0.944,0.768-1.062c2.124-0.295,2.242-0.295,2.301-0.295
		c0.473,0,0.708,0.354,0.708,0.944v23.838h0.118l9.972-10.798c0.354-0.413,0.649-0.59,1.062-0.59h2.95
		c0.59,0,0.413,0.413,0.177,0.708l-9.854,10.622l11.152,15.872c0.472,0.708,0.472,1.239-0.531,1.239h-2.184
		C461.914,58.291,461.441,58.055,461.028,57.465z"/>
	<path fill="#828487" d="M485.277,30.854c0.472,0.236,0.531,0.354,0.413,0.648l-0.591,1.652c-0.177,0.59-0.472,0.531-0.885,0.354
		c-1.593-0.767-4.189-1.417-6.077-1.417c-3.481,0-5.547,1.83-5.547,4.249c0,2.479,1.416,3.54,4.131,4.661l4.189,1.771
		c3.363,1.416,6.077,3.776,6.077,7.435c0,4.957-4.013,8.615-10.444,8.615c-2.95,0-5.959-1.004-7.493-1.771
		c-0.473-0.235-0.649-0.413-0.473-0.826l0.708-1.829c0.178-0.354,0.296-0.472,0.649-0.295c2.006,1.003,4.779,1.77,6.786,1.77
		c3.953,0,6.549-1.946,6.549-5.191c0-2.715-2.006-4.131-4.956-5.311l-3.54-1.416c-3.6-1.416-6.078-3.658-6.078-7.141
		c0-4.779,4.308-7.552,9.441-7.552C480.498,29.26,482.74,29.673,485.277,30.854z"/>
</g>
<g>
	<path fill="#828487" d="M229.634,122.549h-4.189v14.869c0,0.649-0.236,1.062-0.944,1.062h-2.242c-0.708,0-0.944-0.413-0.944-1.062
		V99.006c0-0.649,0.236-1.062,0.944-1.062h7.14c8.025,0,14.692,3.068,14.692,12.096C244.09,118.596,237.482,122.549,229.634,122.549
		z M228.808,101.13h-3.363v18.233h3.953c6.137,0,10.444-2.715,10.444-9.324C239.842,102.959,235.063,101.13,228.808,101.13z"/>
	<path fill="#828487" d="M273.06,137.891c0,0.472-0.178,0.59-0.709,0.59h-2.242c-2.301,0-3.304-1.947-3.304-4.248v-0.768
		c-1.181,2.892-5.192,5.547-9.087,5.547c-8.025,0-11.506-6.963-11.506-14.279c0-9.678,5.605-15.283,12.45-15.283
		c2.832,0,6.136,1.181,8.083,3.718l0.06-2.183c0-0.709,0.413-0.945,1.062-0.945h1.771c0.649,0,0.885,0.354,0.885,1.062v20.711
		c0,1.652,0,2.773,0.236,3.246c0.236,0.531,0.649,0.707,1.239,0.707h0.413c0.472,0,0.649,0.119,0.649,0.649V137.891z
		 M266.746,117.356c-1.534-3.187-4.72-4.956-7.848-4.956c-5.074,0-8.792,4.543-8.792,12.096c0,7.494,3.718,11.329,7.907,11.329
		c4.308,0,7.553-3.54,8.732-7.14V117.356z"/>
	<path fill="#828487" d="M301.378,110.984l-11.506,31.037c-2.597,6.902-5.311,9.44-11.211,9.44c-0.708,0-1.594-0.118-2.36-0.236
		c-0.354-0.06-0.59-0.235-0.59-0.649c0-0.059,0-0.117,0-0.177l0.295-1.888c0.059-0.531,0.235-0.649,0.648-0.649
		c0.06,0,0.118,0,0.178,0c0.59,0.06,1.534,0.177,2.183,0.177c2.95,0,5.134-1.298,6.432-4.543l1.829-4.484l-10.443-28.146
		c-0.118-0.354-0.06-0.826,0.472-0.826h2.773c0.531,0,0.826,0.296,0.944,0.65l8.319,23.602l8.202-23.602
		c0.177-0.473,0.354-0.65,0.943-0.65h2.302c0.472,0,0.708,0.119,0.708,0.473C301.497,110.63,301.438,110.807,301.378,110.984z"/>
	<path fill="#828487" d="M318.134,109.627c0.413,0.059,0.531,0.354,0.472,0.648l-0.295,1.947c-0.059,0.354-0.295,0.531-0.59,0.473
		c-0.59-0.118-1.239-0.236-1.889-0.236c-2.124,0-4.484,1.594-6.019,3.953v21.006c0,0.709-0.295,1.062-0.943,1.062h-1.889
		c-0.649,0-0.944-0.354-0.944-1.062v-26.316c0-0.708,0.295-1.062,0.944-1.062h1.829c0.649,0,0.944,0.354,0.944,1.062l0.059,2.065
		c1.181-1.771,3.658-3.718,6.609-3.718C316.835,109.449,317.544,109.509,318.134,109.627z"/>
	<path fill="#828487" d="M334.535,139.012c-8.851,0-12.745-6.49-12.745-14.811c0-8.201,4.603-14.752,13.1-14.752
		c8.851,0,12.863,6.255,12.863,14.752C347.752,132.462,343.091,139.012,334.535,139.012z M334.889,112.341
		c-7.021,0-9.205,6.255-9.205,11.742c0,5.782,2.006,12.097,8.91,12.097c6.845,0,9.264-5.96,9.264-11.86
		C343.858,118.478,341.616,112.341,334.889,112.341z"/>
	<path fill="#828487" d="M357.898,137.418c0,0.709-0.295,1.062-0.943,1.062h-1.889c-0.649,0-0.944-0.354-0.944-1.062V98.002
		c0-0.707,0.118-0.943,0.768-1.062c2.124-0.295,2.242-0.295,2.301-0.295c0.473,0,0.708,0.354,0.708,0.944V137.418z"/>
	<path fill="#828487" d="M369.638,137.418c0,0.709-0.295,1.062-0.943,1.062h-1.889c-0.649,0-0.944-0.354-0.944-1.062V98.002
		c0-0.707,0.118-0.943,0.768-1.062c2.124-0.295,2.242-0.295,2.301-0.295c0.473,0,0.708,0.354,0.708,0.944V137.418z"/>
</g>
<g>
	<path fill="#828487" d="M229.634,202.549h-4.189v14.869c0,0.649-0.236,1.062-0.944,1.062h-2.242c-0.708,0-0.944-0.413-0.944-1.062
		v-38.412c0-0.649,0.236-1.062,0.944-1.062h7.14c8.025,0,14.692,3.068,14.692,12.096
		C244.09,198.596,237.482,202.549,229.634,202.549z M228.808,181.13h-3.363v18.233h3.953c6.137,0,10.444-2.715,10.444-9.324
		C239.842,182.959,235.063,181.13,228.808,181.13z"/>
	<path fill="#828487" d="M273.06,217.891c0,0.472-0.178,0.59-0.709,0.59h-2.242c-2.301,0-3.304-1.947-3.304-4.248v-0.768
		c-1.181,2.892-5.192,5.547-9.087,5.547c-8.025,0-11.506-6.963-11.506-14.279c0-9.678,5.605-15.283,12.45-15.283
		c2.832,0,6.136,1.181,8.083,3.718l0.06-2.183c0-0.709,0.413-0.945,1.062-0.945h1.771c0.649,0,0.885,0.354,0.885,1.062v20.711
		c0,1.652,0,2.773,0.236,3.246c0.236,0.531,0.649,0.707,1.239,0.707h0.413c0.472,0,0.649,0.119,0.649,0.649V217.891z
		 M266.746,197.356c-1.534-3.187-4.72-4.956-7.848-4.956c-5.074,0-8.792,4.543-8.792,12.096c0,7.494,3.718,11.329,7.907,11.329
		c4.308,0,7.553-3.54,8.732-7.14V197.356z"/>
	<path fill="#828487" d="M301.378,190.984l-11.506,31.037c-2.597,6.902-5.311,9.44-11.211,9.44c-0.708,0-1.594-0.118-2.36-0.236
		c-0.354-0.06-0.59-0.235-0.59-0.649c0-0.059,0-0.117,0-0.177l0.295-1.888c0.059-0.531,0.235-0.649,0.648-0.649
		c0.06,0,0.118,0,0.178,0c0.59,0.06,1.534,0.177,2.183,0.177c2.95,0,5.134-1.298,6.432-4.543l1.829-4.484l-10.443-28.146
		c-0.118-0.354-0.06-0.826,0.472-0.826h2.773c0.531,0,0.826,0.296,0.944,0.65l8.319,23.602l8.202-23.602
		c0.177-0.473,0.354-0.65,0.943-0.65h2.302c0.472,0,0.708,0.119,0.708,0.473C301.497,190.63,301.438,190.807,301.378,190.984z"/>
	<path fill="#828487" d="M346.103,217.418c0,0.709-0.295,1.062-0.944,1.062h-1.889c-0.648,0-0.943-0.354-0.943-1.062v-16.816
		c0-4.897-1.357-8.201-6.786-8.201c-2.537,0-5.546,1.238-7.788,2.891c0.412,1.416,0.59,2.951,0.59,4.779v17.348
		c0,0.709-0.295,1.062-0.944,1.062h-1.889c-0.648,0-0.943-0.354-0.943-1.062v-16.816c0-4.602-1.121-8.201-6.432-8.201
		c-2.95,0-6.019,1.652-8.32,3.775v21.242c0,0.709-0.295,1.062-0.943,1.062h-1.889c-0.649,0-0.944-0.354-0.944-1.062v-26.316
		c0-0.708,0.295-1.062,0.944-1.062h1.829c0.649,0,0.944,0.354,0.944,1.062l0.059,2.006c2.537-2.359,5.9-3.658,9.146-3.658
		c3.009,0,6.137,0.944,7.788,3.6c2.715-2.359,6.373-3.6,9.736-3.6c6.903,0,9.618,4.072,9.618,10.621V217.418z"/>
	<path fill="#828487" d="M375.069,204.378h-18.705c0,6.255,3.128,11.447,9.913,11.447c2.537,0,5.605-0.59,7.376-1.356
		c0.472-0.236,0.885-0.178,1.003,0.412l0.295,1.357c0.118,0.531,0.059,0.885-0.531,1.121c-2.36,1.121-6.019,1.652-8.497,1.652
		c-9.027,0-13.453-6.078-13.453-14.811c0-8.201,5.016-14.752,13.276-14.752c6.963,0,10.976,5.311,10.976,12.215v1.121
		C376.721,204.083,376.543,204.378,375.069,204.378z M365.627,192.341c-5.546,0-8.614,4.484-9.146,9.382h16.403
		c0.06-0.413,0.06-0.768,0.06-1.18C372.945,196.059,370.584,192.341,365.627,192.341z"/>
	<path fill="#828487" d="M405.69,217.418c0,0.709-0.295,1.062-0.943,1.062h-1.889c-0.649,0-0.944-0.354-0.944-1.062v-16.816
		c0-4.721-1.121-8.201-6.549-8.201c-2.951,0-6.609,1.711-8.852,3.775v21.242c0,0.709-0.295,1.062-0.943,1.062h-1.889
		c-0.649,0-0.944-0.354-0.944-1.062v-26.316c0-0.708,0.295-1.062,0.944-1.062h1.829c0.649,0,0.944,0.354,0.944,1.062l0.059,2.006
		c2.715-2.418,6.491-3.658,9.854-3.658c6.903,0,9.322,4.189,9.322,10.621V217.418z"/>
	<path fill="#828487" d="M427.755,215.766l0.295,1.476c0.117,0.472,0,0.649-0.591,0.886c-1.121,0.412-3.068,0.885-4.838,0.885
		c-2.302,0-4.779-0.649-6.078-2.006c-1.651-1.712-1.77-4.131-1.77-7.377v-16.816h-3.481c-0.531,0-0.649-0.117-0.649-0.59v-1.593
		c0-0.531,0.118-0.591,0.531-0.591h3.6v-6.902c0-0.709,0.118-0.945,0.767-1.062l2.065-0.295h0.236c0.472,0,0.708,0.354,0.708,0.943
		v7.316h7.14c0.472,0,0.648,0.119,0.648,0.65v1.533c0,0.473-0.177,0.59-0.708,0.59h-7.08v17.407c0,2.065,0.177,3.718,1.18,4.72
		c0.708,0.709,1.829,1.121,3.481,1.121c1.357,0,2.832-0.354,3.658-0.648C427.342,215.235,427.696,215.354,427.755,215.766z"/>
	<path fill="#828487" d="M447.638,191.043c0.472,0.236,0.531,0.354,0.413,0.648l-0.591,1.652c-0.177,0.59-0.472,0.531-0.885,0.354
		c-1.593-0.767-4.189-1.417-6.077-1.417c-3.481,0-5.547,1.83-5.547,4.249c0,2.479,1.416,3.54,4.131,4.661l4.189,1.771
		c3.363,1.416,6.077,3.776,6.077,7.435c0,4.957-4.013,8.615-10.444,8.615c-2.95,0-5.959-1.004-7.493-1.771
		c-0.473-0.235-0.649-0.413-0.473-0.826l0.708-1.829c0.178-0.354,0.296-0.472,0.649-0.295c2.006,1.003,4.779,1.77,6.786,1.77
		c3.953,0,6.549-1.946,6.549-5.191c0-2.715-2.006-4.131-4.956-5.311l-3.54-1.416c-3.6-1.416-6.078-3.658-6.078-7.141
		c0-4.779,4.308-7.553,9.441-7.553C442.859,189.449,445.101,189.863,447.638,191.043z"/>
</g>
<g>
	<path fill="#828487" d="M222.671,259.006l8.969,33.396h0.06l8.201-33.338c0.236-1.003,0.591-1.121,1.534-1.121h1.771
		c0.708,0,1.062,0.354,1.239,1.062L253,292.402h0.059l9.205-33.338c0.295-1.003,0.59-1.121,1.534-1.121h1.829
		c0.886,0,1.121,0.354,0.886,1.062l-11.447,38.472c-0.236,0.767-0.59,1.003-1.298,1.003h-2.125c-0.708,0-1.062-0.118-1.298-1.121
		l-8.202-32.748h-0.059l-8.319,32.866c-0.178,0.825-0.649,1.003-1.357,1.003h-2.065c-0.708,0-1.003-0.118-1.298-1.121
		l-11.094-38.117c-0.177-0.709-0.235-1.299,0.591-1.299h2.478C222.082,257.943,222.435,258.121,222.671,259.006z"/>
	<path fill="#828487" d="M288.576,284.378h-18.705c0,6.255,3.127,11.447,9.913,11.447c2.537,0,5.605-0.59,7.376-1.356
		c0.472-0.236,0.885-0.178,1.003,0.412l0.295,1.357c0.118,0.531,0.059,0.885-0.531,1.121c-2.36,1.121-6.019,1.652-8.497,1.652
		c-9.027,0-13.453-6.078-13.453-14.811c0-8.201,5.016-14.752,13.276-14.752c6.963,0,10.976,5.311,10.976,12.215v1.121
		C290.228,284.083,290.05,284.378,288.576,284.378z M279.134,272.341c-5.546,0-8.614,4.484-9.146,9.382h16.403
		c0.06-0.413,0.06-0.768,0.06-1.18C286.452,276.059,284.091,272.341,279.134,272.341z"/>
	<path fill="#828487" d="M307.986,299.012c-3.245,0-6.372-1.711-8.143-3.836l-0.059,2.242c0,0.826-0.296,1.062-1.121,1.062h-1.476
		c-0.649,0-0.944-0.178-0.944-0.885v-39.594c0-0.707,0.118-0.943,0.768-1.062c2.36-0.295,1.947-0.295,2.301-0.295
		c0.473,0,0.708,0.354,0.708,0.944v15.577c1.771-1.888,5.016-3.718,8.91-3.718c8.379,0,11.919,6.786,11.919,14.693
		C320.849,292.167,316.778,299.012,307.986,299.012z M308.34,272.459c-3.01,0-6.373,1.829-8.32,4.071v14.987
		c1.712,2.655,4.603,4.543,7.789,4.543c6.373,0,9.146-5.311,9.146-11.623C316.955,277.238,314.299,272.459,308.34,272.459z"/>
	<path fill="#828487" d="M341.97,271.043c0.472,0.236,0.531,0.354,0.413,0.648l-0.591,1.652c-0.177,0.59-0.472,0.531-0.885,0.354
		c-1.593-0.767-4.189-1.417-6.077-1.417c-3.481,0-5.547,1.83-5.547,4.249c0,2.479,1.416,3.54,4.131,4.661l4.189,1.771
		c3.363,1.416,6.077,3.776,6.077,7.435c0,4.957-4.013,8.615-10.444,8.615c-2.95,0-5.959-1.004-7.493-1.771
		c-0.473-0.235-0.649-0.413-0.473-0.826l0.708-1.829c0.178-0.354,0.296-0.472,0.649-0.295c2.006,1.003,4.779,1.77,6.786,1.77
		c3.953,0,6.549-1.946,6.549-5.191c0-2.715-2.006-4.131-4.956-5.311l-3.54-1.416c-3.6-1.416-6.078-3.658-6.078-7.141
		c0-4.779,4.308-7.553,9.441-7.553C337.191,269.449,339.433,269.863,341.97,271.043z"/>
	<path fill="#828487" d="M351.88,265.732c-1.357,0-2.419-0.944-2.419-2.301c0-1.357,1.062-2.302,2.419-2.302
		s2.479,0.944,2.479,2.302C354.359,264.788,353.238,265.732,351.88,265.732z M353.768,297.418c0,0.709-0.295,1.062-0.943,1.062
		h-1.889c-0.648,0-0.944-0.354-0.944-1.062v-26.316c0-0.708,0.296-1.062,0.944-1.062h1.889c0.648,0,0.943,0.354,0.943,1.062V297.418
		z"/>
	<path fill="#828487" d="M377.723,295.766l0.295,1.476c0.117,0.472,0,0.649-0.591,0.886c-1.121,0.412-3.068,0.885-4.838,0.885
		c-2.302,0-4.779-0.649-6.078-2.006c-1.651-1.712-1.77-4.131-1.77-7.377v-16.816h-3.481c-0.531,0-0.649-0.117-0.649-0.59v-1.593
		c0-0.531,0.118-0.591,0.531-0.591h3.6v-6.902c0-0.709,0.118-0.945,0.767-1.062l2.065-0.295h0.236c0.472,0,0.708,0.354,0.708,0.943
		v7.316h7.14c0.472,0,0.648,0.119,0.648,0.65v1.533c0,0.473-0.177,0.59-0.708,0.59h-7.08v17.407c0,2.065,0.177,3.718,1.18,4.72
		c0.708,0.709,1.829,1.121,3.481,1.121c1.357,0,2.832-0.354,3.658-0.648C377.31,295.235,377.664,295.354,377.723,295.766z"/>
	<path fill="#828487" d="M402.149,284.378h-18.705c0,6.255,3.128,11.447,9.913,11.447c2.537,0,5.605-0.59,7.376-1.356
		c0.472-0.236,0.885-0.178,1.003,0.412l0.295,1.357c0.118,0.531,0.059,0.885-0.531,1.121c-2.36,1.121-6.019,1.652-8.497,1.652
		c-9.027,0-13.453-6.078-13.453-14.811c0-8.201,5.016-14.752,13.276-14.752c6.963,0,10.976,5.311,10.976,12.215v1.121
		C403.801,284.083,403.624,284.378,402.149,284.378z M392.708,272.341c-5.546,0-8.614,4.484-9.146,9.382h16.403
		c0.06-0.413,0.06-0.768,0.06-1.18C400.025,276.059,397.665,272.341,392.708,272.341z"/>
	<path fill="#828487" d="M424.569,271.043c0.472,0.236,0.531,0.354,0.413,0.648l-0.591,1.652c-0.177,0.59-0.472,0.531-0.885,0.354
		c-1.593-0.767-4.189-1.417-6.077-1.417c-3.481,0-5.547,1.83-5.547,4.249c0,2.479,1.416,3.54,4.131,4.661l4.189,1.771
		c3.363,1.416,6.077,3.776,6.077,7.435c0,4.957-4.013,8.615-10.444,8.615c-2.95,0-5.959-1.004-7.493-1.771
		c-0.473-0.235-0.649-0.413-0.473-0.826l0.708-1.829c0.178-0.354,0.296-0.472,0.649-0.295c2.006,1.003,4.779,1.77,6.786,1.77
		c3.953,0,6.549-1.946,6.549-5.191c0-2.715-2.006-4.131-4.956-5.311l-3.54-1.416c-3.6-1.416-6.078-3.658-6.078-7.141
		c0-4.779,4.308-7.553,9.441-7.553C419.79,269.449,422.032,269.863,424.569,271.043z"/>
</g>
<g>
</g>
<g>
</g>
<g>
</g>
<g>
</g>
<g>
</g>
<g>
</g>
</svg>
